<svg width="98" height="90" viewBox="0 0 98 90" xmlns="http://www.w3.org/2000/svg">
    <rect y="40" width="10" height="10"/>
    <rect x="20" y="20" width="10" height="10"/>
    <rect x="20" y="60" width="10" height="10"/>
    <rect x="10" y="30" width="10" height="10"/>
    <rect x="10" y="40" width="88" height="10"/>
    <rect x="20" y="30" width="10" height="10"/>
    <rect x="30" y="20" width="10" height="10"/>
    <rect x="40" y="10" width="10" height="10"/>
    <rect x="20" y="50" width="10" height="10"/>
    <rect x="30" y="60" width="10" height="10"/>
    <rect x="40" y="70" width="10" height="10"/>
    <rect x="30" y="10" width="10" height="10"/>
    <rect x="10" y="50" width="10" height="10"/>
    <rect x="30" y="70" width="10" height="10"/>
    <rect x="40" y="80" width="10" height="10"/>
    <rect x="40" width="10" height="10"/>
</svg>
